<svg width="33" height="33" viewBox="0 0 33 33" fill="none" xmlns="http://www.w3.org/2000/svg">
<path d="M16.25 8C17.344 8 18.3932 8.42143 19.1668 9.17157C19.9404 9.92172 20.375 10.9391 20.375 12C20.375 13.0609 19.9404 14.0783 19.1668 14.8284C18.3932 15.5786 17.344 16 16.25 16C15.156 16 14.1068 15.5786 13.3332 14.8284C12.5596 14.0783 12.125 13.0609 12.125 12C12.125 10.9391 12.5596 9.92172 13.3332 9.17157C14.1068 8.42143 15.156 8 16.25 8ZM16.25 24C16.25 24 24.5 24 24.5 22C24.5 19.6 20.4781 17 16.25 17C12.0219 17 8 19.6 8 22C8 24 16.25 24 16.25 24Z" fill="white"/>
<circle cx="16.5" cy="16.5" r="16.5" fill="#D9D9D9" fill-opacity="0.24"/>
</svg>
