<svg width="33" height="33" viewBox="0 0 33 33" fill="none" xmlns="http://www.w3.org/2000/svg">
<circle cx="16.5" cy="16.5" r="16.5" fill="#2D2D2E"/>
<ellipse cx="16.7031" cy="16.5" rx="6.70312" ry="6.5" fill="white"/>
<path d="M15.7997 18.1591V18.1207C15.804 17.7138 15.8466 17.3899 15.9276 17.1491C16.0085 16.9084 16.1236 16.7134 16.2727 16.5643C16.4219 16.4151 16.6009 16.2777 16.8097 16.152C16.9354 16.0753 17.0483 15.9847 17.1484 15.8803C17.2486 15.7738 17.3274 15.6513 17.3849 15.5128C17.4446 15.3743 17.4744 15.2209 17.4744 15.0526C17.4744 14.8437 17.4254 14.6626 17.3274 14.5092C17.2294 14.3558 17.0984 14.2376 16.9343 14.1545C16.7702 14.0714 16.5881 14.0298 16.3878 14.0298C16.2131 14.0298 16.0447 14.0661 15.8828 14.1385C15.7209 14.2109 15.5856 14.3249 15.4769 14.4805C15.3683 14.636 15.3054 14.8395 15.2884 15.0909H14.483C14.5 14.7287 14.5938 14.4187 14.7642 14.1609C14.9368 13.9031 15.1637 13.706 15.445 13.5696C15.7283 13.4332 16.0426 13.3651 16.3878 13.3651C16.7628 13.3651 17.0888 13.4396 17.3658 13.5888C17.6449 13.7379 17.8601 13.9425 18.0114 14.2024C18.1648 14.4624 18.2415 14.7585 18.2415 15.0909C18.2415 15.3253 18.2053 15.5373 18.1328 15.7269C18.0625 15.9165 17.9602 16.0859 17.826 16.2351C17.6939 16.3842 17.5341 16.5163 17.3466 16.6314C17.1591 16.7486 17.0089 16.8722 16.896 17.0021C16.783 17.13 16.701 17.2823 16.6499 17.4592C16.5987 17.636 16.571 17.8565 16.5668 18.1207V18.1591H15.7997ZM16.2088 20.0511C16.0511 20.0511 15.9158 19.9947 15.8029 19.8817C15.69 19.7688 15.6335 19.6335 15.6335 19.4759C15.6335 19.3182 15.69 19.1829 15.8029 19.07C15.9158 18.957 16.0511 18.9006 16.2088 18.9006C16.3665 18.9006 16.5018 18.957 16.6147 19.07C16.7276 19.1829 16.7841 19.3182 16.7841 19.4759C16.7841 19.5803 16.7575 19.6761 16.7042 19.7635C16.6531 19.8509 16.5838 19.9212 16.4964 19.9744C16.4112 20.0256 16.3153 20.0511 16.2088 20.0511Z" fill="black"/>
</svg>
